<?xml version="1.0" encoding="UTF-8" standalone="no"?>
<svg
   xmlns:dc="http://purl.org/dc/elements/1.1/"
   xmlns:cc="http://creativecommons.org/ns#"
   xmlns:rdf="http://www.w3.org/1999/02/22-rdf-syntax-ns#"
   xmlns:svg="http://www.w3.org/2000/svg"
   xmlns="http://www.w3.org/2000/svg"
   viewBox="0 0 793.70667 793.70667"
   height="793.70667"
   width="793.70667"
   xml:space="preserve"
   id="svg2"
   version="1.1"><metadata
     id="metadata8"><rdf:RDF><cc:Work
         rdf:about=""><dc:format>image/svg+xml</dc:format><dc:type
           rdf:resource="http://purl.org/dc/dcmitype/StillImage" /></cc:Work></rdf:RDF></metadata><defs
     id="defs6" /><g
     transform="matrix(1.3333333,0,0,-1.3333333,0,793.70667)"
     id="g10"><g
       transform="scale(0.1)"
       id="g12"><path
         id="path14"
         style="fill:#ffd700;fill-opacity:1;fill-rule:nonzero;stroke:none"
         d="m 1089.92,2183.46 c 22.3,140.95 138.05,323.82 337.14,525.73 165.49,167.82 376.54,337.17 618.84,498.38 37.3,-31.09 82.1,-53.41 131.28,-64.02 -1.54,-55.71 -2.52,-111.46 -2.52,-167.13 0,-247.99 15.55,-497.78 45.21,-736.02 -115.86,-43.85 -198.39,-155.52 -198.39,-286.74 0,-8.8 0.6,-17.46 1.32,-26.07 -64.26,-13.06 -127.09,-24.09 -187.79,-32.44 -279.84,-38.53 -495.08,-22.07 -621.55,43.84 -46.3,78.38 -87.85,159.87 -123.54,244.47 z m 313.77,2100.64 c 79.97,-215.05 287.38,-460.34 566.18,-699.72 -21.93,-42.26 -34.52,-90.15 -34.52,-141.05 0,-45.91 10.36,-89.31 28.44,-128.41 -247.07,-165 -462.87,-338.56 -632.86,-510.94 -146.57,-148.64 -251.48,-289.81 -313.53,-418.81 -56.634,187.3 -87.423,385.71 -87.423,591.25 0,496.86 178.133,952.81 473.713,1307.68 z m 820.93,-534.83 c -63.34,-3.6 -121.44,-26.28 -168.77,-62.56 -317.18,273.89 -507.66,531.86 -545.57,715.34 294.9,303.19 682.57,515.3 1116.82,590.34 -195.4,-255.84 -333.64,-719.01 -402.48,-1243.12 z m 2638.26,20.1 c -22.31,-140.97 -138.06,-323.85 -337.15,-525.76 -131.57,-133.43 -291.98,-267.83 -473.94,-398.33 -55.97,59.6 -135.27,97.04 -223.48,97.04 -112.54,0 -210.64,-60.76 -264.04,-151.09 -185.22,74.11 -375.14,162.16 -564.52,262.62 -170.22,90.3 -327.61,184.04 -471.65,278.83 13.31,34.37 20.89,71.59 20.89,110.65 0,20.37 -2.09,40.23 -5.87,59.49 44.37,23.56 89.1,46.89 134.56,69.68 959,480.58 1761.15,599.02 2061.45,441.68 46.38,-78.48 88,-160.09 123.75,-244.81 z M 4120.6,2728.75 c 192.37,137.27 362.2,279.05 501.26,420.07 146.57,148.64 251.48,289.84 313.53,418.85 56.64,-187.3 87.44,-385.72 87.44,-591.25 0,-131.63 -12.98,-260.24 -36.84,-385.02 -119.98,-67.46 -333.55,-81.02 -613.16,-35.89 -76.81,12.39 -156.8,28.95 -239.25,49.31 1,10.09 1.55,20.32 1.55,30.68 0,32.52 -5.15,63.83 -14.53,93.25 z M 2350.57,2259.37 c -26.08,219.18 -40.91,459.22 -40.91,717.05 0,57.1 0.96,113.03 2.36,168.38 54.2,12.64 102.82,39.55 141.75,76.7 154.06,-101.96 316.65,-198.83 482.7,-286.91 196.44,-104.2 393.75,-195.42 586.37,-272.06 -0.77,-8.93 -1.36,-17.91 -1.36,-27.03 0,-39.83 7.83,-77.76 21.64,-112.68 -86.94,-48.92 -176.36,-96.55 -267.98,-142.47 -226.7,-113.61 -453.8,-210.67 -673.1,-288.63 -47.38,93.75 -141.28,159.71 -251.47,167.65 z m 625.83,2763.45 c 673.49,0 1271.87,-327.15 1645,-830.74 -466.79,88.22 -1281.15,-136.55 -2004.19,-498.91 -43.6,-21.85 -86.57,-44.21 -129.22,-66.79 -33.86,45.4 -79.84,81.08 -133.32,102.2 84.84,674.65 278.53,1141.75 484.32,1289.12 45.47,3.03 91.19,5.12 137.41,5.12 z M 1331.5,1760.58 c 69.54,-13.5 147.52,-20.56 233.9,-20.56 87.83,0 184.11,7.08 288.02,21.4 67.98,9.35 138.46,21.92 210.62,36.9 53.34,-90.54 151.57,-151.48 264.26,-151.48 0.85,0 1.66,0.12 2.5,0.13 74.49,-286.08 174.24,-526.73 296.31,-686.56 -528.61,91.34 -988.47,385.72 -1295.61,800.17 z M 2838.99,935.102 c -144.02,103.138 -282.09,362.708 -381.1,740.738 104.6,48.89 177.24,154.74 177.24,277.82 0,2.23 -0.29,4.39 -0.33,6.6 228.57,80.61 465.1,181.28 700.81,299.41 97.14,48.68 191.99,99.24 284.08,151.29 54.76,-50.91 127.94,-82.29 208.62,-82.29 111.21,0 208.29,59.37 262.11,147.93 89.92,-22.51 177.24,-40.88 260.92,-54.37 113.69,-18.37 217.97,-27.42 311.88,-27.42 110.36,0 205.51,13.19 285.7,37.87 C 4710.11,1567.43 3916.54,929.98 2976.4,929.98 c -46.22,0 -91.94,2.09 -137.41,5.122 z M 2976.4,5247.82 c -606.48,0 -1157.77,-239.39 -1565.56,-628.06 l -5.71,3.03 c -2.53,-4.77 -4.23,-9.81 -6.5,-14.67 C 971.395,4194.87 704.977,3616.34 704.977,2976.42 704.977,1723.94 1723.93,704.98 2976.4,704.98 c 1252.47,0 2271.42,1018.96 2271.42,2271.44 0,1252.44 -1018.95,2271.4 -2271.42,2271.4" /></g></g></svg>